# xmcd
#
# Track frame offsets:
#	150
#	11497
#	22517
#	35219
#	45807
#	55144
#	65589
#	80026
#	92244
#	105124
#	118132
#	129852
#	141154
#	155585
#	163049
#	175931
#	187569
#	199164
#	211831
#	224004
#	234784
#	241529
#
# Disc length: 3341 seconds
# Revision: 0
# Processed by: cddbd v1.5.2PL0 Copyright (c) Steve Scherf et al.
# Submitted via: dBpowerAMP V12.0
#
DISCID=160d0b16
DTITLE=Various Artist - Gospel Greats
DYEAR=2002
DGENRE=Gospel
TTITLE0=Sister Rosetta Tharpe - Down By The Riverside
TTITLE1=5 Blind Boys of Alabama - Jesus Is Keeping Me
TTITLE2=The Golden Gate Quartet - Rock My Soul (In the Bosom of Abraham)
TTITLE3=Mahalia Jackson - Amazing Grace
TTITLE4=The Golden Gate Quartet - Our Father
TTITLE5=Delta Rhythm Boys - Ezeikiel Saw De Wheel
TTITLE6=Southern Sons - I'm Free At Last
TTITLE7=Jubilaires - Go Down Moses
TTITLE8=Roosevelt Cranes - Woke Up This Morning
TTITLE9=Swan Silvertones - The Lord Done What He Said
TTITLE10=Charioteers - Amen
TTITLE11=Evelyn Knight and Sister Rosetta Tharpe - Up Above My Head (I Hear Music In The Air)
TTITLE12=Mahalia Jackson - Go Tell It On The Mountain
TTITLE13=Le Fevre Trio - I've Got A Wonderful Feeling Inside
TTITLE14=Paul Robeson - Swing Low Sweet Chariot
TTITLE15=Homeland Harmoneers - Lord Help Me Carry On
TTITLE16=Swan Silvertones - I'll Search Heaven
TTITLE17=Seelah Jubilee Singers - I'll Fly Away
TTITLE18=Blackwood Brothers - Peace In The Valley
TTITLE19=Golden Gate Quartet - Dip Your Fingers In The Water
TTITLE20=Harmoneers - Halleluljah I'm Coming Home
TTITLE21=Richard Huey and the Sundown Singers - Rock My Soul (In The Bosom Of Abraham)
EXTD=
EXTT0=
EXTT1=
EXTT2=
EXTT3=
EXTT4=
EXTT5=
EXTT6=
EXTT7=
EXTT8=
EXTT9=
EXTT10=
EXTT11=
EXTT12=
EXTT13=
EXTT14=
EXTT15=
EXTT16=
EXTT17=
EXTT18=
EXTT19=
EXTT20=
EXTT21=
PLAYORDER=
